#Comment line ignore any data following # character 
#Hierarchical Translation and Rotation (.htr) file 
[Header]	
#Header keywords are followed by a single value 
FileType HTR		#Single word string
DataType HTRS		#Translation followed by rotation and scale data
FileVersion 1		#integer
NumSegments 84		#integer
NumFrames 2		#integer
DataFrameRate 30		#integer, data frame rate in this file
EulerRotationOrder ZYX
CalibrationUnits mm
RotationUnits Degrees
GlobalAxisofGravity Y
BoneLengthAxis Y
ScaleFactor 1.00
[SegmentNames&Hierarchy]
#CHILD	PARENT
MASTER GLOBAL
root MASTER
chest root
L_mid_tent01 root
R_mid_tent01 root
spine01 root
Bip01_Neck chest
L_humerus chest
R_humerus chest
weapon_bone chest
Bip01_Head Bip01_Neck
eye_left_bone Bip01_Head
eye_right_bone Bip01_Head
L_forearm L_humerus
L_front_hand L_forearm
L_weapon_bone L_forearm
L_front_hand01_01 L_front_hand
L_front_hand02_01 L_front_hand
L_front_hand03_01 L_front_hand
L_front_hand01_02 L_front_hand01_01
L_front_hand02_02 L_front_hand02_01
L_front_hand03_02 L_front_hand03_01
R_forearm R_humerus
R_front_hand R_forearm
R_weapon_bone R_forearm
R_front_hand01_01 R_front_hand
R_front_hand02_01 R_front_hand
R_front_hand03_01 R_front_hand
R_front_hand01_02 R_front_hand01_01
R_front_hand02_02 R_front_hand02_01
R_front_hand03_02 R_front_hand03_01
null_rope01_connect L_mid_tent01
Rope1_Seg01 null_rope01_connect
Rope1_Seg02 Rope1_Seg01
Rope1_Seg03 Rope1_Seg02
Rope1_Seg04 Rope1_Seg03
Rope1_Seg05 Rope1_Seg04
Rope1_Seg06 Rope1_Seg05
Rope1_Seg07 Rope1_Seg06
Rope1_Seg09 Rope1_Seg07
L_mid_hand01 Rope1_Seg09
L_mid_hand02 Rope1_Seg09
L_mid_hand03 Rope1_Seg09
null_rope02_connect R_mid_tent01
Rope2_Seg01 null_rope02_connect
Rope2_Seg02 Rope2_Seg01
Rope2_Seg03 Rope2_Seg02
Rope2_Seg04 Rope2_Seg03
Rope2_Seg05 Rope2_Seg04
Rope2_Seg06 Rope2_Seg05
Rope2_Seg07 Rope2_Seg06
Rope2_Seg09 Rope2_Seg07
R_mid_hand01 Rope2_Seg09
R_mid_hand02 Rope2_Seg09
R_mid_hand03 Rope2_Seg09
spine02 spine01
spine03 spine02
pelvis spine03
null_rope03_connect pelvis
null_rope04_connect pelvis
Rope3_Seg01 null_rope03_connect
Rope3_Seg02 Rope3_Seg01
Rope3_Seg03 Rope3_Seg02
Rope3_Seg04 Rope3_Seg03
Rope3_Seg05 Rope3_Seg04
Rope3_Seg06 Rope3_Seg05
Rope3_Seg07 Rope3_Seg06
Rope3_Seg08 Rope3_Seg07
Rope3_Seg09 Rope3_Seg08
R_rear_hand01 Rope3_Seg09
R_rear_hand02 Rope3_Seg09
R_rear_hand03 Rope3_Seg09
Rope4_Seg01 null_rope04_connect
Rope4_Seg02 Rope4_Seg01
Rope4_Seg03 Rope4_Seg02
Rope4_Seg04 Rope4_Seg03
Rope4_Seg05 Rope4_Seg04
Rope4_Seg06 Rope4_Seg05
Rope4_Seg07 Rope4_Seg06
Rope4_Seg08 Rope4_Seg07
Rope4_Seg09 Rope4_Seg08
L_rear_hand01 Rope4_Seg09
L_rear_hand02 Rope4_Seg09
L_rear_hand03 Rope4_Seg09
[BasePosition]
#SegmentName Tx, Ty, Tz, Rx, Ry, Rz, BoneLength
MASTER 0.000000 0.000000 0.000000 -90.000000 0.000000 0.000000 10.000000 
root 0.000000 0.000000 0.000000 0.000000 0.000000 0.000000 10.000000 
chest 0.000000 0.000000 0.000000 0.000000 0.000000 0.000000 10.000000 
L_mid_tent01 0.000000 0.000000 0.000000 0.000000 0.000000 0.000000 10.000000 
R_mid_tent01 0.000000 0.000000 0.000000 0.000000 0.000000 0.000000 10.000000 
spine01 0.000000 0.000000 0.000000 0.000000 0.000000 0.000000 10.000000 
Bip01_Neck 0.000000 0.000000 0.000000 0.000000 0.000000 0.000000 10.000000 
L_humerus 0.000000 0.000000 0.000000 0.000000 0.000000 0.000000 10.000000 
R_humerus 0.000000 0.000000 0.000000 0.000000 0.000000 0.000000 10.000000 
weapon_bone 0.000000 0.000000 0.000000 0.000000 0.000000 0.000000 10.000000 
Bip01_Head 0.000000 0.000000 0.000000 0.000000 0.000000 0.000000 10.000000 
eye_left_bone 0.000000 0.000000 0.000000 0.000000 0.000000 0.000000 10.000000 
eye_right_bone 0.000000 0.000000 0.000000 0.000000 0.000000 0.000000 10.000000 
L_forearm 0.000000 0.000000 0.000000 0.000000 0.000000 0.000000 10.000000 
L_front_hand 0.000000 0.000000 0.000000 0.000000 0.000000 0.000000 10.000000 
L_weapon_bone 0.000000 0.000000 0.000000 0.000000 0.000000 0.000000 10.000000 
L_front_hand01_01 0.000000 0.000000 0.000000 0.000000 0.000000 0.000000 10.000000 
L_front_hand02_01 0.000000 0.000000 0.000000 0.000000 0.000000 0.000000 10.000000 
L_front_hand03_01 0.000000 0.000000 0.000000 0.000000 0.000000 0.000000 10.000000 
L_front_hand01_02 0.000000 0.000000 0.000000 0.000000 0.000000 0.000000 10.000000 
L_front_hand02_02 0.000000 0.000000 0.000000 0.000000 0.000000 0.000000 10.000000 
L_front_hand03_02 0.000000 0.000000 0.000000 0.000000 0.000000 0.000000 10.000000 
R_forearm 0.000000 0.000000 0.000000 0.000000 0.000000 0.000000 10.000000 
R_front_hand 0.000000 0.000000 0.000000 0.000000 0.000000 0.000000 10.000000 
R_weapon_bone 0.000000 0.000000 0.000000 0.000000 0.000000 0.000000 10.000000 
R_front_hand01_01 0.000000 0.000000 0.000000 0.000000 0.000000 0.000000 10.000000 
R_front_hand02_01 0.000000 0.000000 0.000000 0.000000 0.000000 0.000000 10.000000 
R_front_hand03_01 0.000000 0.000000 0.000000 0.000000 0.000000 0.000000 10.000000 
R_front_hand01_02 0.000000 0.000000 0.000000 0.000000 0.000000 0.000000 10.000000 
R_front_hand02_02 0.000000 0.000000 0.000000 0.000000 0.000000 0.000000 10.000000 
R_front_hand03_02 0.000000 0.000000 0.000000 0.000000 0.000000 0.000000 10.000000 
null_rope01_connect 0.000000 0.000000 0.000000 0.000000 0.000000 0.000000 10.000000 
Rope1_Seg01 0.000000 0.000000 0.000000 0.000000 0.000000 0.000000 10.000000 
Rope1_Seg02 0.000000 0.000000 0.000000 0.000000 0.000000 0.000000 10.000000 
Rope1_Seg03 0.000000 0.000000 0.000000 0.000000 0.000000 0.000000 10.000000 
Rope1_Seg04 0.000000 0.000000 0.000000 0.000000 0.000000 0.000000 10.000000 
Rope1_Seg05 0.000000 0.000000 0.000000 0.000000 0.000000 0.000000 10.000000 
Rope1_Seg06 0.000000 0.000000 0.000000 0.000000 0.000000 0.000000 10.000000 
Rope1_Seg07 0.000000 0.000000 0.000000 0.000000 0.000000 0.000000 10.000000 
Rope1_Seg09 0.000000 0.000000 0.000000 0.000000 0.000000 0.000000 10.000000 
L_mid_hand01 0.000000 0.000000 0.000000 0.000000 0.000000 0.000000 10.000000 
L_mid_hand02 0.000000 0.000000 0.000000 0.000000 0.000000 0.000000 10.000000 
L_mid_hand03 0.000000 0.000000 0.000000 0.000000 0.000000 0.000000 10.000000 
null_rope02_connect 0.000000 0.000000 0.000000 0.000000 0.000000 0.000000 10.000000 
Rope2_Seg01 0.000000 0.000000 0.000000 0.000000 0.000000 0.000000 10.000000 
Rope2_Seg02 0.000000 0.000000 0.000000 0.000000 0.000000 0.000000 10.000000 
Rope2_Seg03 0.000000 0.000000 0.000000 0.000000 0.000000 0.000000 10.000000 
Rope2_Seg04 0.000000 0.000000 0.000000 0.000000 0.000000 0.000000 10.000000 
Rope2_Seg05 0.000000 0.000000 0.000000 0.000000 0.000000 0.000000 10.000000 
Rope2_Seg06 0.000000 0.000000 0.000000 0.000000 0.000000 0.000000 10.000000 
Rope2_Seg07 0.000000 0.000000 0.000000 0.000000 0.000000 0.000000 10.000000 
Rope2_Seg09 0.000000 0.000000 0.000000 0.000000 0.000000 0.000000 10.000000 
R_mid_hand01 0.000000 0.000000 0.000000 0.000000 0.000000 0.000000 10.000000 
R_mid_hand02 0.000000 0.000000 0.000000 0.000000 0.000000 0.000000 10.000000 
R_mid_hand03 0.000000 0.000000 0.000000 0.000000 0.000000 0.000000 10.000000 
spine02 0.000000 0.000000 0.000000 0.000000 0.000000 0.000000 10.000000 
spine03 0.000000 0.000000 0.000000 0.000000 0.000000 0.000000 10.000000 
pelvis 0.000000 0.000000 0.000000 0.000000 0.000000 0.000000 10.000000 
null_rope03_connect 0.000000 0.000000 0.000000 0.000000 0.000000 0.000000 10.000000 
null_rope04_connect 0.000000 0.000000 0.000000 0.000000 0.000000 0.000000 10.000000 
Rope3_Seg01 0.000000 0.000000 0.000000 0.000000 0.000000 0.000000 10.000000 
Rope3_Seg02 0.000000 0.000000 0.000000 0.000000 0.000000 0.000000 10.000000 
Rope3_Seg03 0.000000 0.000000 0.000000 0.000000 0.000000 0.000000 10.000000 
Rope3_Seg04 0.000000 0.000000 0.000000 0.000000 0.000000 0.000000 10.000000 
Rope3_Seg05 0.000000 0.000000 0.000000 0.000000 0.000000 0.000000 10.000000 
Rope3_Seg06 0.000000 0.000000 0.000000 0.000000 0.000000 0.000000 10.000000 
Rope3_Seg07 0.000000 0.000000 0.000000 0.000000 0.000000 0.000000 10.000000 
Rope3_Seg08 0.000000 0.000000 0.000000 0.000000 0.000000 0.000000 10.000000 
Rope3_Seg09 0.000000 0.000000 0.000000 0.000000 0.000000 0.000000 10.000000 
R_rear_hand01 0.000000 0.000000 0.000000 0.000000 0.000000 0.000000 10.000000 
R_rear_hand02 0.000000 0.000000 0.000000 0.000000 0.000000 0.000000 10.000000 
R_rear_hand03 0.000000 0.000000 0.000000 0.000000 0.000000 0.000000 10.000000 
Rope4_Seg01 0.000000 0.000000 0.000000 0.000000 0.000000 0.000000 10.000000 
Rope4_Seg02 0.000000 0.000000 0.000000 0.000000 0.000000 0.000000 10.000000 
Rope4_Seg03 0.000000 0.000000 0.000000 0.000000 0.000000 0.000000 10.000000 
Rope4_Seg04 0.000000 0.000000 0.000000 0.000000 0.000000 0.000000 10.000000 
Rope4_Seg05 0.000000 0.000000 0.000000 0.000000 0.000000 0.000000 10.000000 
Rope4_Seg06 0.000000 0.000000 0.000000 0.000000 0.000000 0.000000 10.000000 
Rope4_Seg07 0.000000 0.000000 0.000000 0.000000 0.000000 0.000000 10.000000 
Rope4_Seg08 0.000000 0.000000 0.000000 0.000000 0.000000 0.000000 10.000000 
Rope4_Seg09 0.000000 0.000000 0.000000 0.000000 0.000000 0.000000 10.000000 
L_rear_hand01 0.000000 0.000000 0.000000 0.000000 0.000000 0.000000 10.000000 
L_rear_hand02 0.000000 0.000000 0.000000 0.000000 0.000000 0.000000 10.000000 
L_rear_hand03 0.000000 0.000000 0.000000 0.000000 0.000000 0.000000 10.000000 
#Beginning of Data. Separated by tabs
#Fr	Tx	Ty	Tz	Rx	Ry	Rz	SF
[MASTER]
107 0.000000 0.000000 0.000000 0.000000 -0.002347 -90.000000 0.000000
108 0.000000 0.000000 0.000000 0.000000 -0.002347 -90.000000 0.000000
[root]
107 -14.348906 125.105530 613.078308 -88.582230 -10.448836 179.361130 625.877197
108 -14.348907 130.341446 600.127380 -88.582230 -10.448836 179.361130 614.286316
[chest]
107 -84.512650 -34.090519 0.000000 -8.085314 14.330789 -173.454056 91.129311
108 -84.512650 -34.090519 0.000000 -7.117315 13.949492 -173.280045 91.129311
[L_mid_tent01]
107 27.299511 22.177458 -249.918259 -63.657536 18.686338 33.262241 252.381134
108 27.299511 22.177458 -249.918259 -63.657547 18.686344 33.262245 252.381134
[R_mid_tent01]
107 23.228794 24.509907 226.238495 -131.259216 -15.836094 39.582561 228.744751
108 23.228794 24.509907 226.238495 -131.259216 -15.836094 39.582561 228.744751
[spine01]
107 -0.361383 -0.195265 0.000000 0.001845 0.001451 13.654368 0.410763
108 -0.361383 -0.195265 0.000000 0.001845 0.001451 13.654368 0.410763
[Bip01_Neck]
107 165.484543 71.581718 0.000119 176.643677 -1.657967 43.431911 180.302734
108 165.484543 71.581718 0.000119 176.643677 -1.657967 43.431911 180.302734
[L_humerus]
107 -13.983130 -135.272980 -120.471481 139.792725 43.100510 -137.188171 181.680161
108 -13.983130 -135.272980 -120.471481 139.289825 44.101959 -137.770966 181.680161
[R_humerus]
107 -13.983309 -135.273102 125.287651 -139.395966 -31.323490 -142.237030 184.909012
108 -13.983309 -135.273102 125.287651 -138.746292 -31.895304 -142.871277 184.909012
[weapon_bone]
107 235.964890 -300.705902 0.000000 0.000000 -89.951546 -128.212341 382.234833
108 235.964890 -300.705902 0.000000 0.000000 -89.951546 -128.212341 382.234833
[Bip01_Head]
107 128.171936 128.412277 8.333419 1.938589 3.724703 -19.795942 181.623810
108 128.171936 128.412277 8.333419 1.938589 3.724703 -19.795942 181.623810
[eye_left_bone]
107 -24.626970 125.451866 -64.772606 0.000000 -90.000000 -99.840431 143.318359
108 -24.626970 125.451866 -64.772606 0.000000 -90.000000 -99.840431 143.318359
[eye_right_bone]
107 -24.626970 125.451866 64.327362 0.000000 -89.965736 80.156380 143.117676
108 -24.626970 125.451866 64.327362 0.000000 -89.965736 80.156380 143.117676
[L_forearm]
107 322.776093 0.000000 -0.000119 0.000248 0.002334 -77.868416 322.776093
108 322.776093 0.000000 -0.000119 0.000226 0.002336 -78.959877 322.776093
[L_front_hand]
107 241.149185 -0.042021 -3.300071 -26.784443 -1.834971 -27.423836 241.171753
108 241.149185 -0.042021 -3.300071 7.569872 -1.836497 -27.422647 241.171753
[L_weapon_bone]
107 156.183838 0.000000 0.000000 0.000014 0.000007 0.000001 156.183838
108 156.183838 0.000000 0.000000 0.000014 0.000007 0.000001 156.183838
[L_front_hand01_01]
107 86.095154 20.947098 -0.655860 -0.366594 -0.477154 75.385574 88.609184
108 86.095154 20.947098 -0.655860 -0.366594 -0.477154 75.385574 88.609184
[L_front_hand02_01]
107 86.935165 -11.437475 24.513514 154.399796 -59.883835 -61.369587 91.046425
108 86.935165 -11.437475 24.513514 154.399796 -59.883835 -61.369587 91.046425
[L_front_hand03_01]
107 86.637497 -14.123976 -20.424902 -153.913849 58.118130 -62.702866 90.126129
108 86.637497 -14.123976 -20.424902 -153.913849 58.118122 -62.702866 90.126129
[L_front_hand01_02]
107 71.020905 -0.000179 0.000030 0.000334 -0.002323 -106.379684 71.020905
108 71.020905 -0.000179 0.000030 0.000334 -0.002323 -106.379684 71.020905
[L_front_hand02_02]
107 71.020927 -0.000119 0.000060 0.000334 -0.002323 -106.379684 71.020927
108 71.020927 -0.000119 0.000060 0.000334 -0.002323 -106.379684 71.020927
[L_front_hand03_02]
107 71.020905 -0.000060 0.000060 0.000334 -0.002323 -106.379684 71.020905
108 71.020905 -0.000060 0.000060 0.000334 -0.002323 -106.379684 71.020905
[R_forearm]
107 322.776428 -0.000060 0.000030 0.194528 -0.081173 -68.305779 322.776428
108 322.776428 -0.000060 0.000030 0.194769 -0.080594 -68.646782 322.776428
[R_front_hand]
107 238.847015 -0.006795 2.210259 14.994279 -10.642149 -26.315765 238.857239
108 238.847015 -0.006795 2.210259 -17.931562 -10.644422 -26.313934 238.857239
[R_weapon_bone]
107 155.664093 0.002503 -0.000030 0.003487 0.001180 -90.988930 155.664078
108 155.664093 0.002503 -0.000030 0.003487 0.001180 -90.988930 155.664078
[R_front_hand01_01]
107 87.624611 14.231146 22.918642 -154.633499 -59.950619 61.746044 91.683487
108 87.624611 14.231146 22.918642 -154.633484 -59.950619 61.746037 91.683487
[R_front_hand02_01]
107 89.356956 14.367283 -19.491137 154.602661 58.302849 63.744389 92.579636
108 89.356956 14.367283 -19.491137 154.602661 58.302849 63.744389 92.579636
[R_front_hand03_01]
107 87.286232 -22.307278 -0.143439 0.162155 -0.423168 -75.767921 90.091743
108 87.286232 -22.307278 -0.143439 0.162155 -0.423168 -75.767921 90.091743
[R_front_hand01_02]
107 71.020905 0.000060 0.000119 0.002323 -0.000334 106.381714 71.020905
108 71.020905 0.000060 0.000119 0.002323 -0.000334 106.381714 71.020905
[R_front_hand02_02]
107 71.020844 -0.000030 -0.000119 0.002323 -0.000334 106.381714 71.020836
108 71.020844 -0.000030 -0.000119 0.002323 -0.000334 106.381714 71.020836
[R_front_hand03_02]
107 71.020905 0.000000 0.000030 0.002323 -0.000334 106.381714 71.020905
108 71.020905 0.000000 0.000030 0.002323 -0.000334 106.381714 71.020905
[null_rope01_connect]
107 328.732483 0.000000 -0.000238 -166.231216 26.298847 69.278114 328.732483
108 328.732483 0.000000 -0.000238 -166.231216 26.298849 69.278122 328.732483
[Rope1_Seg01]
107 0.000000 0.000000 0.000000 131.263855 -31.834881 -62.520718 0.000000
108 0.000000 0.000000 0.000000 127.282677 -26.631468 -63.053608 0.000000
[Rope1_Seg02]
107 139.999863 -0.000179 0.000000 -6.414501 -5.521126 -6.695448 139.999863
108 139.999863 -0.000179 0.000000 -5.892602 -4.649011 -6.950273 139.999863
[Rope1_Seg03]
107 139.999924 0.000060 -0.000060 -8.570809 -7.620347 -11.922110 139.999924
108 139.999924 0.000060 -0.000060 -7.234594 -5.909319 -11.355487 139.999924
[Rope1_Seg04]
107 139.999924 -0.000060 -0.000119 -8.639198 -9.201975 -21.649658 139.999924
108 139.999924 -0.000060 -0.000119 -7.016944 -6.579773 -18.409573 139.999924
[Rope1_Seg05]
107 139.999832 0.000119 -0.000060 -3.528302 -4.937350 -21.428175 139.999832
108 139.999832 0.000119 -0.000060 -3.296624 -3.793155 -18.324711 139.999832
[Rope1_Seg06]
107 139.999954 0.000119 -0.000060 -0.180054 -2.155170 -15.725034 139.999954
108 139.999954 0.000119 -0.000060 -0.186378 -2.460958 -19.801161 139.999954
[Rope1_Seg07]
107 139.999985 0.000060 0.000000 3.645173 -2.599020 -22.284548 139.999985
108 139.999985 0.000060 0.000000 5.831262 -2.988253 -27.450798 139.999985
[Rope1_Seg09]
107 121.602913 0.000119 -0.000089 -89.793175 -1.359789 0.847147 121.602913
108 121.602913 0.000119 -0.000089 -89.793175 -1.359789 0.847147 121.602913
[L_mid_hand01]
107 103.859421 1.038730 8.195221 109.056198 -40.604698 -13.201401 104.187431
108 103.859421 1.038730 8.195221 109.056198 -40.604698 -13.201401 104.187431
[L_mid_hand02]
107 105.572853 -4.139662 -10.864139 -146.713593 31.476530 -37.902313 106.211075
108 105.572853 -4.139662 -10.864139 -146.713593 31.476528 -37.902313 106.211075
[L_mid_hand03]
107 104.641464 17.579376 -3.913581 -14.267233 12.322316 43.898396 106.179977
108 104.641464 17.579376 -3.913581 -14.267233 12.322316 43.898396 106.179977
[null_rope02_connect]
107 328.732849 0.000179 -0.000119 -164.342651 -37.938038 110.680077 328.732849
108 328.732849 0.000179 -0.000119 -164.342651 -37.938038 110.680077 328.732849
[Rope2_Seg01]
107 -0.000038 -0.000114 0.000108 -53.615807 -18.304358 -108.759613 0.000162
108 -0.000038 -0.000114 0.000109 -54.833473 -20.655773 -108.760704 0.000162
[Rope2_Seg02]
107 139.999741 -0.000060 -0.000119 3.101962 6.864361 3.747019 139.999756
108 139.999741 -0.000060 -0.000119 3.451534 6.777627 4.330902 139.999756
[Rope2_Seg03]
107 140.000107 0.000030 0.000000 3.328898 10.060039 4.880433 140.000107
108 140.000107 0.000030 0.000000 3.885871 10.258627 5.817955 140.000107
[Rope2_Seg04]
107 139.999802 0.000000 -0.000060 1.671270 15.746922 2.574866 139.999802
108 139.999802 0.000000 -0.000060 2.366077 16.850180 4.273538 139.999802
[Rope2_Seg05]
107 139.999985 -0.000060 0.000119 0.140138 13.508964 6.511044 139.999985
108 139.999985 -0.000060 0.000119 0.302232 14.112579 7.339820 139.999985
[Rope2_Seg06]
107 139.999893 -0.000030 -0.000119 -0.208810 18.475889 36.605595 139.999893
108 139.999893 -0.000030 -0.000119 -0.069339 17.024733 36.022591 139.999893
[Rope2_Seg07]
107 139.999893 0.000060 -0.000060 -0.834738 15.363940 37.369579 139.999893
108 139.999893 0.000060 -0.000060 0.146880 14.800605 38.118027 139.999893
[Rope2_Seg09]
107 121.338966 0.000089 -0.000060 33.793236 -1.359788 -0.847141 121.338966
108 121.338966 0.000089 -0.000060 33.793236 -1.359788 -0.847141 121.338966
[R_mid_hand01]
107 104.680779 11.144459 -10.335981 -37.204079 31.906813 37.576260 105.778534
108 104.680779 11.144459 -10.335981 -37.204067 31.906805 37.576252 105.778534
[R_mid_hand02]
107 104.070427 2.443552 8.231699 70.367462 -42.427391 14.067809 104.424065
108 104.070427 2.443552 8.231699 70.367462 -42.427387 14.067807 104.424065
[R_mid_hand03]
107 106.028137 -11.221827 -5.996406 -169.893616 12.226661 -47.211029 106.788818
108 106.028137 -11.221827 -5.996406 -169.893616 12.226661 -47.211018 106.788818
[spine02]
107 129.756927 0.001550 0.000119 -1.023899 -3.926965 6.770993 129.756927
108 129.756927 0.001550 0.000119 -1.023899 -3.926965 6.770993 129.756927
[spine03]
107 78.613846 0.087372 -4.898873 1.040680 4.146419 4.212375 78.766380
108 78.613846 0.087372 -4.898873 1.040680 4.146419 4.212375 78.766380
[pelvis]
107 169.435242 0.051022 0.000000 0.019518 -0.190233 -10.721436 169.435257
108 169.435242 0.051022 0.000000 0.019518 -0.190233 -10.721436 169.435257
[null_rope03_connect]
107 -1.257226 -2.466202 137.391083 21.146282 88.832657 -72.228729 137.418976
108 -1.257226 -2.466202 137.391083 21.146282 88.832657 -72.228729 137.418976
[null_rope04_connect]
107 -1.259640 -2.480268 -137.844437 21.146282 88.832657 -72.228729 137.872513
108 -1.259640 -2.480268 -137.844437 21.146282 88.832657 -72.228729 137.872513
[Rope3_Seg01]
107 0.000000 0.000000 0.000000 -152.665344 -41.374580 130.098633 0.000000
108 0.000000 0.000000 0.000000 -154.699875 -45.111919 129.832626 0.000000
[Rope3_Seg02]
107 139.999924 -0.000119 0.000060 7.021776 -10.790641 5.392433 139.999924
108 139.999924 -0.000119 0.000060 6.345408 -10.047847 4.461948 139.999924
[Rope3_Seg03]
107 139.999924 -0.000119 0.000119 9.758559 -15.153438 10.437580 139.999924
108 139.999924 -0.000119 0.000119 9.716391 -15.097964 9.124010 139.999924
[Rope3_Seg04]
107 139.999924 0.000119 0.000000 8.074303 -13.969275 15.722962 139.999924
108 139.999924 0.000119 0.000000 9.459665 -16.307823 15.720249 139.999924
[Rope3_Seg05]
107 139.999924 -0.000238 0.000060 4.293882 -8.789238 12.904487 139.999924
108 139.999924 -0.000238 0.000060 5.148608 -9.966018 13.956998 139.999924
[Rope3_Seg06]
107 139.999893 -0.000119 -0.000060 2.943835 -11.709071 16.570206 139.999893
108 139.999893 -0.000119 -0.000060 3.331905 -11.070718 16.621672 139.999893
[Rope3_Seg07]
107 139.999771 0.000060 -0.000119 -1.167941 -14.610504 23.606455 139.999771
108 139.999771 0.000060 -0.000119 -1.080342 -14.249841 24.958323 139.999771
[Rope3_Seg08]
107 139.999985 -0.000060 0.000000 -1.412822 -6.825841 12.143526 139.999985
108 139.999985 -0.000060 0.000000 -1.710646 -6.880694 13.159903 139.999985
[Rope3_Seg09]
107 90.185997 -0.000179 -0.000060 89.793228 -1.359877 -0.847183 90.185997
108 90.185997 -0.000179 -0.000060 89.793228 -1.359877 -0.847183 90.185997
[R_rear_hand01]
107 103.366196 -6.073594 -10.757982 -164.755127 19.627697 -40.352161 104.101845
108 103.366196 -6.073594 -10.757982 -164.755127 19.627697 -40.352161 104.101845
[R_rear_hand02]
107 100.509819 12.039542 -7.992327 -30.792652 24.782450 38.141541 101.543350
108 100.509819 12.039542 -7.992327 -30.792645 24.782444 38.141533 101.543350
[R_rear_hand03]
107 101.539970 5.215704 5.435467 82.448349 -41.048256 8.840378 101.819031
108 101.539970 5.215704 5.435467 82.448349 -41.048256 8.840378 101.819031
[Rope4_Seg01]
107 0.000010 0.000038 -0.000114 57.956261 -22.800264 54.783386 0.000121
108 0.000010 0.000038 -0.000114 58.945004 -23.262602 52.551689 0.000121
[Rope4_Seg02]
107 139.999985 0.000060 0.000119 -6.583180 5.536427 -10.995614 139.999985
108 139.999985 0.000060 0.000119 -6.796226 5.604337 -10.393867 139.999985
[Rope4_Seg03]
107 139.999924 0.000000 -0.000238 -6.985216 7.595498 -11.788016 139.999924
108 139.999924 0.000000 -0.000238 -7.326314 7.867268 -11.422887 139.999924
[Rope4_Seg04]
107 139.999985 0.000000 0.000119 -4.277781 7.191852 -7.770484 139.999985
108 139.999985 0.000000 0.000119 -4.806680 8.005328 -8.101584 139.999985
[Rope4_Seg05]
107 139.999802 -0.000060 -0.000119 -3.407287 6.689295 -7.513024 139.999802
108 139.999802 -0.000060 -0.000119 -3.339800 6.941208 -6.956105 139.999802
[Rope4_Seg06]
107 139.999924 0.000000 0.000060 -7.771320 15.871286 -19.449160 139.999924
108 139.999924 0.000000 0.000060 -6.788797 15.130491 -16.829927 139.999924
[Rope4_Seg07]
107 139.999802 0.000000 0.000000 -7.563765 26.558668 -29.679642 139.999802
108 139.999802 0.000000 0.000000 -7.957560 28.730310 -30.683912 139.999802
[Rope4_Seg08]
107 139.999924 0.000000 0.000119 -0.024115 12.666416 -12.450715 139.999924
108 139.999924 0.000000 0.000119 0.662525 14.284387 -13.449633 139.999924
[Rope4_Seg09]
107 90.185791 0.000060 0.000060 -135.617828 2.228885 0.850567 90.185791
108 90.185791 0.000060 0.000060 -135.617828 2.228885 0.850567 90.185791
[L_rear_hand01]
107 101.696655 -8.392275 -7.654577 -31.684452 -23.583008 144.025742 102.329041
108 101.696655 -8.392275 -7.654577 -31.684452 -23.583008 144.025742 102.329041
[L_rear_hand02]
107 102.726799 -1.568258 5.773216 82.701553 38.753956 171.553619 102.900848
108 102.726799 -1.568258 5.773216 82.701553 38.753956 171.553619 102.900848
[L_rear_hand03]
107 104.552910 9.721220 -10.420293 -163.975403 -19.004421 -142.009338 105.519653
108 104.552910 9.721220 -10.420293 -163.975388 -19.004416 -142.009338 105.519653
